<?xml version="1.0" encoding="utf-8"?>
<svg xmlns="http://www.w3.org/2000/svg" xmlns:svg="http://www.w3.org/2000/svg" version="1.1" viewBox="0 0 1400 440">
	<title>The titlepage for the Standard Ebooks edition of My First Summer in the Sierra, by John Muir</title>
	<g aria-label="MY FIRST SUMMER">
		<path d="m 288.42909,130 h 17.59064 L 299.09575,52.807016 H 280.3823 L 263.2595,97.345029 246.13669,52.807016 H 227.42324 L 220.49926,130 h 17.59064 l 3.64913,-45.754387 h 0.46783 l 15.81287,45.286547 h 10.47953 l 15.81287,-45.286547 h 0.46783 z"/>
		<path d="m 301.23903,52.807016 28.44444,42.5731 V 130 h 17.59065 V 95.380116 l 28.44444,-42.5731 h -21.1462 L 338.4788,77.508771 322.38523,52.807016 Z"/>
		<path d="M 458.77266,52.807016 H 414.14108 V 130 h 17.59064 V 99.029239 h 24.98246 V 83.590642 H 431.73172 V 68.245613 h 27.04094 z"/>
		<path d="M 489.72881,52.807016 H 472.13816 V 130 h 17.59065 z"/>
		<path d="M 506.01243,52.807016 V 130 h 17.59064 V 99.497075 L 547.18202,130 h 22.36257 l -26.5731,-31.906433 c 9.4503,-2.994152 15.81287,-10.760234 15.81287,-22.362574 0,-15.157895 -10.8538,-22.923977 -25.16959,-22.923977 z m 17.59064,34.245615 V 66.842104 h 2.05848 c 6.64328,0 14.59649,0.467836 14.59649,10.105263 0,9.637428 -7.95321,10.105264 -14.59649,10.105264 z"/>
		<path d="m 606.5256,51.403507 c -12.44444,0 -25.16959,9.169591 -25.16959,23.578948 0,8.046784 5.4269,15.251462 14.69006,19.836258 9.16959,4.584795 17.40351,7.111107 17.40351,12.725147 0,7.20468 -7.29825,7.57895 -11.13451,7.57895 -8.60818,0 -18.90058,-8.70176 -18.90058,-8.70176 l -8.79532,14.78363 c 0,0 10.94737,10.19883 29.00585,10.19883 15.06432,0 29.09941,-6.45614 29.09941,-24.88889 0,-10.105264 -9.45029,-17.40351 -18.05848,-21.052632 -8.79532,-3.742691 -16.09357,-6.83041 -16.09357,-11.134504 0,-4.210526 3.18129,-6.923976 9.16959,-6.923976 7.95322,0 15.62574,5.333333 15.62574,5.333333 l 7.11111,-14.035088 c 0,0 -9.91813,-7.298246 -23.95322,-7.298246 z"/>
		<path d="m 636.51244,68.245613 h 18.33918 V 130 h 17.59065 V 68.245613 h 18.33918 V 52.807016 h -54.26901 z"/>
		<path d="m 759.31799,51.403507 c -12.44445,0 -25.16959,9.169591 -25.16959,23.578948 0,8.046784 5.4269,15.251462 14.69006,19.836258 9.16959,4.584795 17.40351,7.111107 17.40351,12.725147 0,7.20468 -7.29825,7.57895 -11.13451,7.57895 -8.60818,0 -18.90058,-8.70176 -18.90058,-8.70176 l -8.79532,14.78363 c 0,0 10.94736,10.19883 29.00584,10.19883 15.06433,0 29.09942,-6.45614 29.09942,-24.88889 0,-10.105264 -9.45029,-17.40351 -18.05848,-21.052632 -8.79532,-3.742691 -16.09357,-6.83041 -16.09357,-11.134504 0,-4.210526 3.18129,-6.923976 9.16959,-6.923976 7.95322,0 15.62574,5.333333 15.62574,5.333333 l 7.11111,-14.035088 c 0,0 -9.91813,-7.298246 -23.95322,-7.298246 z"/>
		<path d="m 858.06066,52.807016 h -17.59064 v 44.63158 c 0,12.912284 -3.92983,16.654974 -12.53801,16.654974 -8.60819,0 -12.53802,-3.74269 -12.53802,-16.654974 v -44.63158 h -17.59064 v 49.777774 c 0,19.08772 10.47953,28.81872 30.12866,28.81872 19.64912,0 30.12865,-9.731 30.12865,-28.81872 z"/>
		<path d="m 937.17909,130 h 17.59064 L 947.84575,52.807016 H 929.1323 L 912.0095,97.345029 894.88669,52.807016 H 876.17324 L 869.24926,130 h 17.59064 l 3.64913,-45.754387 h 0.46783 l 15.81287,45.286547 h 10.47953 l 15.81287,-45.286547 h 0.46783 z"/>
		<path d="m 1030.6294,130 h 17.5906 l -6.9239,-77.192984 h -18.7135 L 1005.4598,97.345029 988.33701,52.807016 H 969.62356 L 962.69958,130 h 17.59064 l 3.64913,-45.754387 h 0.46783 L 1000.22,129.53216 h 10.4796 l 15.8128,-45.286547 h 0.4679 z"/>
		<path d="m 1104.4306,52.807016 h -44.1637 V 130 h 44.1637 v -15.4386 h -26.5731 V 99.029239 h 25.4503 V 83.590642 h -25.4503 V 68.245613 h 26.5731 z"/>
		<path d="M 1119.5432,52.807016 V 130 h 17.5906 V 99.497075 L 1160.7128,130 h 22.3625 l -26.5731,-31.906433 c 9.4503,-2.994152 15.8129,-10.760234 15.8129,-22.362574 0,-15.157895 -10.8538,-22.923977 -25.1696,-22.923977 z m 17.5906,34.245615 V 66.842104 h 2.0585 c 6.6433,0 14.5965,0.467836 14.5965,10.105263 0,9.637428 -7.9532,10.105264 -14.5965,10.105264 z"/>
	</g>
	<g aria-label="IN THE SIERRA">
		<path d="M 350.36842,152.80702 H 332.77777 V 230 h 17.59065 z"/>
		<path d="m 384.24268,182.09357 h 0.18714 L 415.11988,230 h 17.59064 v -77.19298 h -17.59064 v 47.90643 h -0.18714 L 384.24268,152.80702 H 366.65204 V 230 h 17.59064 z"/>
		<path d="m 470.10527,168.24561 h 18.33918 V 230 h 17.59064 v -61.75439 h 18.33918 v -15.43859 h -54.269 z"/>
		<path d="m 553.29971,199.02924 h 24.88888 V 230 h 17.59065 v -77.19298 h -17.59065 v 30.78362 H 553.29971 V 152.80702 H 535.70906 V 230 h 17.59065 z"/>
		<path d="M 656.14473,152.80702 H 611.98099 V 230 h 44.16374 v -15.4386 h -26.5731 v -15.53216 h 25.45029 v -15.4386 h -25.45029 v -15.34503 h 26.5731 z"/>
		<path d="m 728.45906,151.40351 c -12.44444,0 -25.16959,9.16959 -25.16959,23.57895 0,8.04678 5.4269,15.25146 14.69006,19.83625 9.16959,4.5848 17.40351,7.11111 17.40351,12.72515 0,7.20468 -7.29825,7.57895 -11.1345,7.57895 -8.60819,0 -18.90059,-8.70176 -18.90059,-8.70176 l -8.79532,14.78363 c 0,0 10.94737,10.19883 29.00585,10.19883 15.06433,0 29.09941,-6.45614 29.09941,-24.88889 0,-10.10526 -9.45029,-17.40351 -18.05848,-21.05263 -8.79532,-3.74269 -16.09356,-6.83041 -16.09356,-11.13451 0,-4.21052 3.18128,-6.92397 9.16959,-6.92397 7.95321,0 15.62573,5.33333 15.62573,5.33333 l 7.11111,-14.03509 c 0,0 -9.91813,-7.29824 -23.95322,-7.29824 z"/>
		<path d="M 785.47077,152.80702 H 767.88013 V 230 h 17.59064 z"/>
		<path d="M 845.91814,152.80702 H 801.7544 V 230 h 44.16374 v -15.4386 h -26.5731 v -15.53216 h 25.45029 v -15.4386 h -25.45029 v -15.34503 h 26.5731 z"/>
		<path d="M 861.0307,152.80702 V 230 h 17.59065 V 199.49708 L 902.20029,230 h 22.36258 l -26.5731,-31.90643 c 9.45029,-2.99416 15.81286,-10.76024 15.81286,-22.36258 0,-15.15789 -10.8538,-22.92397 -25.16959,-22.92397 z m 17.59065,34.24561 V 166.8421 h 2.05847 c 6.64328,0 14.5965,0.46784 14.5965,10.10527 0,9.63742 -7.95322,10.10526 -14.5965,10.10526 z"/>
		<path d="M 933.09943,152.80702 V 230 h 17.59064 V 199.49708 L 974.26902,230 h 22.36257 l -26.5731,-31.90643 c 9.45029,-2.99416 15.81287,-10.76024 15.81287,-22.36258 0,-15.15789 -10.8538,-22.92397 -25.16959,-22.92397 z m 17.59064,34.24561 V 166.8421 h 2.05848 c 6.64328,0 14.59649,0.46784 14.59649,10.10527 0,9.63742 -7.95321,10.10526 -14.59649,10.10526 z"/>
		<path d="m 1044.3728,152.80702 h -16.2807 L 996.93423,230 h 18.90057 l 5.7076,-15.4386 h 29.3801 L 1056.6301,230 h 18.9006 z m 0.5614,46.31579 h -17.4035 l 8.6082,-22.45614 h 0.1871 z"/>
	</g>
	<g aria-label="JOHN MUIR">
		<path d="m 501.61842,332.10526 h -13.19298 v 38.17544 c 0,5.82456 -2.87719,8.14035 -6.66667,8.14035 -3.36842,0 -7.50877,-3.92982 -7.50877,-3.92982 l -4.21052,11.01754 c 0,0 5.26315,5.54386 13.54386,5.54386 11.57894,0 18.03508,-6.03509 18.03508,-17.40351 z"/>
		<path d="m 511.72369,361.01754 c 0,16.91228 12.07017,30.03509 29.19298,30.03509 16.63158,0 29.12281,-13.12281 29.12281,-30.03509 0,-16.91228 -13.05264,-29.96491 -29.12281,-29.96491 -15.92983,0 -29.19298,13.05263 -29.19298,29.96491 z m 14.24561,0 c 0,-8.63157 4.77193,-17.26315 14.94737,-17.26315 10.24561,0 14.87719,8.63158 14.87719,17.26315 0,8.63158 -4.35088,17.26316 -14.87719,17.26316 -10.80702,0 -14.94737,-8.63158 -14.94737,-17.26316 z"/>
		<path d="m 594.05373,366.77193 h 18.66666 V 390 h 13.19298 v -57.89474 h -13.19298 v 23.08772 H 594.05373 V 332.10526 H 580.86074 V 390 h 13.19299 z"/>
		<path d="m 652.50767,354.07018 h 0.14036 L 675.66557,390 h 13.19298 v -57.89474 h -13.19298 v 35.92983 h -0.14035 L 652.50767,332.10526 H 639.31469 V 390 h 13.19298 z"/>
		<path d="m 774.33991,390 h 13.19299 l -5.19299,-57.89474 h -14.03508 l -12.84211,33.40351 -12.8421,-33.40351 H 728.58553 L 723.39255,390 h 13.19298 l 2.73684,-34.31579 h 0.35088 l 11.85965,33.96491 h 7.85965 l 11.85964,-33.96491 h 0.35088 z"/>
		<path d="m 842.30922,332.10526 h -13.19299 v 33.47369 c 0,9.68421 -2.94736,12.49123 -9.40351,12.49123 -6.45614,0 -9.4035,-2.80702 -9.4035,-12.49123 v -33.47369 h -13.19299 v 37.33334 c 0,14.31579 7.85965,21.61403 22.59649,21.61403 14.73685,0 22.5965,-7.29824 22.5965,-21.61403 z"/>
		<path d="M 868.23137,332.10526 H 855.03839 V 390 h 13.19298 z"/>
		<path d="M 881.69409,332.10526 V 390 h 13.19298 V 367.12281 L 912.57128,390 h 16.77193 l -19.92983,-23.92982 c 7.08772,-2.24562 11.85965,-8.07018 11.85965,-16.77193 0,-11.36842 -8.14035,-17.19299 -18.87719,-17.19299 z m 13.19298,25.68421 v -15.15789 h 1.54386 c 4.98245,0 10.94737,0.35088 10.94737,7.57895 0,7.22807 -5.96492,7.57894 -10.94737,7.57894 z"/>
	</g>
</svg>
